<svg 
xmlns="http://www.w3.org/2000/svg" 
xmlns:xlink="http://www.w3.org/1999/xlink"
fillRule="red"
fill="white"
width="512" 
height="512">
	<path d="M218.583 314.135C228.086 313.646 239.121 313.885 247.145 319.722L247.5 319.984C251.727 323.061 253.704 327.284 256.005 331.807C261.35 322.83 265.329 316.011 277.453 314.749C301.354 312.26 333.113 319.41 349.533 338.254C360.734 351.107 369.272 366.718 376.463 382.106C378.73 386.958 384.068 396.422 381.652 401.966L381.526 402.25C377.998 410.394 346.718 442.289 340.09 448.434C324.376 463.004 306.985 475.875 290.033 488.962L276.139 499.654C272.093 502.718 264.596 508.674 259.555 509.693L259.25 509.749C249.529 511.609 241.201 503.546 233.991 498.154L209.53 479.071C198.377 470.189 186.77 461.726 176.162 452.189C163.147 440.487 151.238 427.59 139.875 414.302C136.006 409.778 131.448 405.561 129.611 399.75C133.167 382.004 150.623 351.606 162.39 338.741C175.457 324.454 199.157 314.898 218.583 314.135ZM256.459 358.396C244.81 369.979 232.062 373.573 215.86 373.849C199.343 374.13 192.734 372.427 178.474 366.015C173.981 374.246 167.189 382.817 161.141 389.909L154.369 397.623C160.866 407.055 182.03 421.889 191.338 428.519C194.799 430.985 198.635 433.233 201.829 436.018L217.5 424.003C219.162 422.697 220.838 421.216 222.836 420.454L255.708 432.761L289.637 420.667C293.469 422.501 296.903 426.128 300.214 428.78L309.39 436.03L324.947 425.429C336.595 417.214 347.553 408.348 357.614 398.24L332.917 366.096C321.629 375.125 295.992 374.678 282.734 373.122C273.645 372.056 262.397 365.968 256.628 358.618L256.459 358.396Z"/>
	<path d="M232.699 378.622C234.167 378.41 236.77 380.059 238.125 380.659C249.182 385.552 261.973 385.815 273.131 381.148C279.92 378.309 278.495 378.291 285.875 379.119L303.567 380.523C296.133 387.866 290.046 395.634 280.84 400.876L274.736 403.332C261.2 407.931 244.604 407.503 231.695 400.98C225.505 397.852 215.149 387.693 210.102 381.875L210.625 381.377C218.005 380.433 225.222 378.834 232.699 378.622Z"/>
	<path d="M179.243 89.3213L200.45 89.431L200.5 102.883C200.502 106.2 200.671 109.627 200.344 112.926C196.874 147.858 167.027 174.525 132.211 176.847C127.131 177.186 115.088 176.204 111.165 177.089L111.16 193.539L208.575 193.613C225.231 193.616 237.065 196.096 238.522 215.257L273.949 215.177C274.332 214.442 274.082 212.721 274.112 211.844C274.409 203.317 282.569 194.956 290.961 194.127C296.786 193.552 302.54 193.65 308.389 193.649L401.041 193.638C400.451 188.21 400.793 182.459 400.853 176.993L382.716 176.914C367.853 176.493 353.543 172.402 341.442 163.594C320.166 148.107 311.728 128.129 311.855 102.71L312.016 89.5018L332.998 89.5782C332.983 98.4506 332.258 108.216 334.069 116.939C337.517 133.554 351.52 148.027 367.625 152.843C381.613 157.025 405.492 152.401 414.587 158.78C423.24 164.848 422.5 172.731 422.506 182.106L422.476 241.219C422.459 261.981 423.887 269.854 412.169 287.919C411.004 289.713 411.282 292.174 411.184 294.25L410.757 300.035C411.393 319.777 400.75 341.355 386.601 354.603C384.878 356.215 383.004 357.754 381.491 359.563L381.304 359.793C378.646 352.738 375.18 346.55 371.333 340.107C370.758 339.144 375.088 335.501 375.91 334.586C383.348 326.303 387.301 316.342 389.071 305.378C378.306 310.719 365.734 309.246 354.068 309.256L320.444 309.237C313.992 309.147 306.99 308.556 300.962 306.135C288.317 301.056 277.897 288.071 275.059 274.88C273.651 268.333 273.695 261.492 273.679 254.826L273.711 236.505L238.305 236.501C238.931 247.021 239.136 268.961 236.378 277.769C231.596 293.042 218.111 306.105 202.033 308.567C197.368 309.281 192.681 309.246 187.978 309.25L172.263 309.26C156.008 309.266 138.964 310.977 123.281 305.832C125.695 319.736 130.615 330.529 141.845 339.464C141.264 340.563 140.2 341.584 139.458 342.599C136.324 346.887 133.627 351.925 131.738 356.869C131.355 357.873 131.384 358.943 130.948 359.875C129.642 359.38 122.304 351.972 121.213 350.789C108.43 336.941 103.262 321.329 101.482 302.967L101.008 293.33C100.671 288.159 99.0721 287.313 96.5089 282.956C92.3271 275.846 89.9968 267.483 89.7053 259.227L89.6042 180.889C89.5987 175.649 88.9733 170.491 91.5782 165.687C96.4607 156.682 105.207 155.213 114.324 155.268C130.694 155.368 146.405 155.307 160.107 144.634C171.5 135.76 178.546 122.994 178.977 108.481C179.163 102.199 178.445 95.5334 179.243 89.3213ZM190.624 215.243L117.19 215.251C115.414 215.252 112.953 214.943 111.248 215.362L111.241 242.201C111.243 250.073 110.493 258.602 112.565 266.25C115.569 277.34 125.88 286.712 137.564 287.451C142.013 287.825 146.506 287.751 150.968 287.758L185.36 287.756C190.205 287.746 195.299 288.116 200 286.825L200.477 286.711C214.222 283.362 216.698 272.131 216.715 259.924L216.613 215.213L190.624 215.243ZM295.381 215.253L295.4 260.967C295.423 273.762 299.359 283.516 313.097 287.348C316.053 288.172 319.808 287.756 322.885 287.758L360.375 287.751C372.033 287.747 383.019 288.257 391.916 279.187C402.194 268.514 400.776 259.181 400.772 245.584L400.76 215.256L295.381 215.253Z"/>
	<path d="M215.353 2.15077L300.5 2.17585C365.582 6.06523 420.281 47.9868 444.256 108.12C451.744 126.901 456.796 146.792 462.944 166.047C467.608 180.656 473.613 194.808 475.625 210.129C477.037 220.879 476.165 231.523 476.544 242.31C477.506 269.63 483.806 298.105 494.003 323.5L504.175 347.233C507.809 356.84 509.983 366.589 510.004 376.877C510.061 404.303 497.411 419.896 480.108 439.701C475.387 445.106 470.85 450.915 465.829 456.021L450.21 441.56C450.569 440.66 451.631 439.781 452.287 439.047L465.431 423.712C493.592 391.508 495.402 376.056 475.436 338.027L457.652 304.648C453.586 297.192 443.404 277.999 443.261 299.375L443.374 358.625L444.866 380.189C445.405 390.03 445.025 399.992 443.702 409.75C441.305 427.44 433.025 443.67 429.903 461.125C427.342 475.446 430.662 496.581 418.437 504.899L418.099 505.125C409.895 510.722 401.46 509.997 391.949 510.003L307.293 509.9L321.972 502.213C339.548 491.889 356.039 478.711 370.437 464.301C400.603 434.112 418.492 401.006 421.501 357.685C421.985 350.71 421.691 343.549 421.693 336.55L421.713 299.751C422.4 299.034 429.218 297.79 430.636 297.358C455.594 289.748 454.812 258.872 454.796 238.347L454.774 223.577C454.722 202.511 449.241 193.781 442.912 174.154C434.424 147.829 428.312 120.051 414.579 95.7939C389.212 50.9857 342.751 24.6595 291.844 23.6239L241.333 23.6188C229.966 23.6168 218.451 23.2009 207.125 24.2492C158.489 28.7505 114.599 60.4672 93.125 104.004C89.4695 111.415 86.587 119.37 83.937 127.184L65.7779 184.074C57.5004 207.09 56.9993 210.54 57.0149 234.751C57.0196 241.966 56.6463 249.435 57.1432 256.625C58.4007 274.819 66.2335 296.078 86.687 298.81L90.2079 299.326C90.6983 300.492 90.4829 302.532 90.4846 303.818L90.715 356.75C92.0453 378.868 97.962 399.65 107.625 419.535L108.029 420.375C121.764 447.02 145.196 469.59 168.75 487.522C180.674 496.601 193.242 505.242 207.745 509.621C205.598 510.282 203.091 509.994 200.872 509.996L111.847 509.999C100.344 509.987 88.8746 505.498 85.4548 493.247C83.4378 486.021 84.18 473.676 82.6276 465.068C78.6374 442.944 68.9407 422.196 67.2068 399.616C66.1333 385.637 67.8846 372.049 68.6155 358.125L68.8513 324.797C68.8516 316.65 70.4043 295.765 66.6979 289.123C57.7253 293.454 47.8168 316.746 43.3293 325.313C31.3496 348.183 15.6732 372.104 28.1459 398.555C32.2442 407.246 38.9429 414.964 45.1517 422.219L62.1463 441.173L46.2797 455.583C45.3127 454.991 44.471 453.726 43.7077 452.875L38.5536 447.12C18.4032 424.331 -0.66463 405.376 2.11946 371.647C3.66994 352.864 12.9836 336.515 19.5666 319.259C27.3294 298.91 34.6326 268.695 35.484 246.375L35.5353 219.592C35.8409 211.485 37.1967 203.294 39.3682 195.479L53.4663 151.868C60.3864 129.648 66.7748 106.812 78.0891 86.3386C105.172 37.3314 159.445 3.93663 215.353 2.15077Z"/>
</svg>